<?xml version="1.0" encoding="utf-8"?>
<!-- Generator: Adobe Illustrator 26.3.1, SVG Export Plug-In . SVG Version: 6.00 Build 0)  -->
<svg version="1.1" id="Layer_1" xmlns="http://www.w3.org/2000/svg" xmlns:xlink="http://www.w3.org/1999/xlink" x="0px" y="0px"
	 viewBox="0 0 158 40" style="enable-background:new 0 0 158 40;" xml:space="preserve">
<style type="text/css">
	.st0{fill:#1D2A38;}
	.st1{fill:#6A0023;}
</style>
<g>
	<path class="st0" d="M23.93,23.3v6.57H7.34c-0.43,0-0.86-0.04-1.27-0.12c-0.06-0.01-0.12-0.03-0.18-0.04
		c-0.92-0.2-1.78-0.59-2.52-1.13c-1.68-1.23-2.78-3.21-2.78-5.44V0.39c3.33,1.9,5.47,5.47,5.47,9.4v10.76
		c0,2.12,1.73,3.85,3.85,3.85h11.31C22.29,24.4,23.24,23.98,23.93,23.3z"/>
	<path class="st0" d="M30.56,0.39v12.69c-1.18-1.74-3.02-3.01-5.2-3.43c-0.09-0.02-0.17-0.03-0.26-0.04
		C25.15,5.76,27.28,2.26,30.56,0.39z"/>
	<path class="st1" d="M30.56,17.66v22.73c-3.33-1.9-5.47-5.47-5.47-9.4V20.24c0-2.12-1.73-3.85-3.85-3.85H9.93
		c-1.05,0-2,0.42-2.69,1.1v-6.57h16.59c0.43,0,0.86,0.04,1.27,0.12C28.2,11.63,30.56,14.37,30.56,17.66z"/>
	<path class="st1" d="M6.07,31.17c-0.06,3.85-2.19,7.35-5.47,9.22v-12.7c0.52,0.77,1.18,1.46,1.95,2.02
		c0.92,0.67,1.94,1.13,3.04,1.37l0.04,0.01c0.06,0.01,0.12,0.02,0.17,0.04C5.9,31.15,5.99,31.16,6.07,31.17z"/>
</g>
<g>
	<g>
		<path d="M50.69,29.48v-1l2.34-0.65c0.17-0.04,0.31-0.12,0.42-0.22c0.11-0.1,0.16-0.25,0.16-0.45V12.65c0-0.19-0.06-0.33-0.17-0.43
			c-0.11-0.1-0.25-0.17-0.41-0.21l-2.34-0.68v-0.97h9.03v0.97l-2.33,0.68c-0.16,0.04-0.3,0.12-0.42,0.22
			c-0.12,0.1-0.17,0.24-0.17,0.42v6.07h10.73v-6.07c0-0.19-0.06-0.33-0.17-0.42s-0.26-0.17-0.44-0.22l-2.31-0.68v-0.97h9.03v0.97
			l-2.31,0.68c-0.18,0.05-0.33,0.13-0.44,0.23c-0.11,0.1-0.17,0.24-0.17,0.41v14.51c0,0.2,0.06,0.34,0.18,0.45
			c0.12,0.1,0.26,0.18,0.43,0.22l2.31,0.65v1H64.6v-1l2.31-0.65c0.18-0.05,0.33-0.13,0.44-0.23s0.17-0.24,0.17-0.44v-6.8H56.79v6.8
			c0,0.2,0.05,0.34,0.16,0.44c0.11,0.1,0.25,0.17,0.43,0.23l2.33,0.65v1H50.69z"/>
		<path d="M81.63,29.76c-0.98,0-1.82-0.19-2.52-0.57c-0.7-0.38-1.24-0.88-1.61-1.49c-0.38-0.61-0.56-1.26-0.56-1.95
			c0-0.92,0.26-1.69,0.78-2.31c0.52-0.63,1.18-1.13,1.99-1.51c0.81-0.38,1.67-0.65,2.57-0.82c0.9-0.17,1.74-0.25,2.51-0.25
			c0.15,0,0.4,0.01,0.74,0.04c0.34,0.03,0.68,0.06,1.03,0.09c0.34,0.03,0.58,0.06,0.71,0.07l0.02-1.97c0.01-1-0.27-1.7-0.84-2.08
			s-1.31-0.57-2.21-0.57c-0.52,0-1.03,0.08-1.55,0.23c-0.52,0.16-1.01,0.35-1.49,0.59c-0.48,0.24-0.91,0.47-1.31,0.71
			c-0.4,0.24-0.74,0.44-1.03,0.6h-0.61l-0.11-2.6c0.59-0.2,1.19-0.38,1.8-0.57c0.61-0.18,1.28-0.33,2.01-0.45s1.55-0.18,2.47-0.18
			c0.99,0,1.94,0.13,2.84,0.38c0.9,0.25,1.64,0.71,2.22,1.37c0.58,0.66,0.86,1.61,0.85,2.85l-0.03,7.4c0,0.33,0.15,0.6,0.45,0.81
			s0.63,0.31,1,0.31c0.2,0,0.44-0.04,0.72-0.13c0.28-0.09,0.53-0.18,0.77-0.28h0.24v1.12c-0.19,0.12-0.47,0.28-0.84,0.47
			c-0.37,0.19-0.76,0.35-1.16,0.49c-0.41,0.14-0.77,0.21-1.09,0.21c-0.95,0-1.66-0.2-2.13-0.59s-0.71-1-0.71-1.84h-0.2
			c-0.56,0.69-1.18,1.21-1.86,1.56s-1.36,0.58-2.03,0.69S82.15,29.76,81.63,29.76z M83.12,27.84c0.66,0,1.4-0.12,2.23-0.37
			c0.83-0.24,1.46-0.63,1.91-1.17v-4.03c-1.41,0-2.64,0.08-3.71,0.23c-1.06,0.16-1.89,0.45-2.48,0.87
			c-0.59,0.43-0.89,1.05-0.89,1.88c0,0.67,0.15,1.19,0.46,1.56s0.68,0.64,1.14,0.79C82.22,27.76,82.67,27.84,83.12,27.84z"/>
		<path d="M95.16,29.48V28.5l1.87-0.53c0.17-0.04,0.32-0.12,0.43-0.22c0.12-0.1,0.17-0.25,0.17-0.43v-9.25
			c0-0.23-0.07-0.41-0.22-0.54c-0.15-0.13-0.31-0.22-0.48-0.29l-1.88-0.69V15.6l5.38-0.73v3.11h0.15c0.62-0.77,1.2-1.4,1.73-1.87
			c0.54-0.47,1.07-0.81,1.6-1.03c0.53-0.21,1.08-0.32,1.65-0.32c0.5,0,0.99,0.05,1.49,0.15c0.5,0.1,0.95,0.3,1.35,0.61v3.32h-1.85
			l-0.44-1.03c-0.1-0.22-0.32-0.4-0.66-0.53s-0.68-0.2-1.01-0.2c-0.58,0-1.09,0.11-1.54,0.34s-0.86,0.51-1.22,0.85
			s-0.7,0.68-1.03,1.01v8.04c0,0.35,0.2,0.56,0.61,0.65l2.36,0.53v0.97H95.16z"/>
		<path d="M111.34,28.87v-3.4h1.79l0.49,1.29c0.07,0.18,0.17,0.33,0.3,0.45c0.13,0.12,0.26,0.22,0.4,0.29
			c0.41,0.2,0.89,0.36,1.45,0.49c0.56,0.13,1.12,0.2,1.68,0.2c0.56,0,1.11-0.08,1.67-0.23c0.56-0.15,1.02-0.39,1.4-0.71
			c0.37-0.32,0.56-0.75,0.56-1.27c0-0.66-0.23-1.14-0.68-1.45s-1.1-0.56-1.93-0.77c-0.57-0.15-1.13-0.29-1.7-0.43
			s-1.12-0.28-1.67-0.42c-1.16-0.3-2.03-0.79-2.63-1.47c-0.6-0.68-0.9-1.46-0.9-2.35c0-0.84,0.32-1.59,0.95-2.24
			s1.46-1.16,2.49-1.53c1.03-0.37,2.13-0.56,3.3-0.56c0.95,0,1.79,0.06,2.52,0.17c0.72,0.12,1.47,0.27,2.23,0.45l0.06,3.45h-1.81
			l-0.5-1.39c-0.05-0.15-0.14-0.28-0.28-0.39s-0.28-0.2-0.42-0.26c-0.34-0.15-0.73-0.26-1.15-0.33c-0.42-0.07-0.86-0.11-1.31-0.11
			c-0.92,0-1.69,0.16-2.31,0.49c-0.62,0.32-0.93,0.81-0.93,1.46c0,0.67,0.24,1.18,0.71,1.53c0.48,0.36,1.21,0.67,2.2,0.93
			c0.48,0.12,0.96,0.25,1.44,0.38s0.95,0.25,1.38,0.37c1.27,0.33,2.22,0.77,2.85,1.32c0.63,0.55,0.95,1.32,0.95,2.32
			c0,0.97-0.34,1.8-1.01,2.49c-0.67,0.69-1.54,1.23-2.6,1.6s-2.18,0.56-3.35,0.56c-1.13,0-2.17-0.1-3.09-0.31
			C112.98,29.3,112.12,29.09,111.34,28.87z"/>
		<path d="M126.63,28.5l1.84-0.53c0.2-0.06,0.35-0.14,0.45-0.23c0.1-0.09,0.14-0.23,0.14-0.41V11.51c0-0.2-0.06-0.34-0.18-0.45
			c-0.12-0.1-0.28-0.19-0.47-0.26l-1.93-0.76V9.09l5.62-0.24v7.55v0.75c0.61-0.7,1.21-1.22,1.79-1.56c0.59-0.34,1.17-0.56,1.75-0.67
			c0.58-0.11,1.14-0.16,1.7-0.16c0.96,0,1.84,0.17,2.64,0.5c0.79,0.33,1.43,0.86,1.9,1.57c0.47,0.71,0.71,1.64,0.71,2.77v7.67
			c0,0.21,0.06,0.37,0.17,0.47c0.12,0.1,0.26,0.18,0.42,0.23l1.67,0.53v0.97h-7.46V28.5l1.55-0.53c0.17-0.05,0.32-0.13,0.43-0.23
			c0.12-0.1,0.17-0.26,0.17-0.47v-6.52c0-0.84-0.09-1.55-0.27-2.14c-0.18-0.59-0.52-1.04-1.03-1.35c-0.51-0.31-1.26-0.47-2.26-0.47
			c-0.68,0-1.38,0.1-2.1,0.29c-0.72,0.19-1.32,0.55-1.79,1.09v9.16c0,0.19,0.05,0.33,0.16,0.41c0.11,0.09,0.25,0.17,0.43,0.24
			l1.43,0.53v0.97h-7.49V28.5z"/>
	</g>
</g>
</svg>
